<svg width="159" height="31" viewBox="0 0 159 31" fill="none" xmlns="http://www.w3.org/2000/svg">
<path d="M6.32 14.16C6.32 15.16 6.7 15.98 7.46 16.62C8.26 17.22 9.46 17.9 11.06 18.66C12.38 19.3 13.4 19.86 14.12 20.34C14.84 20.78 15.46 21.38 15.98 22.14C16.54 22.9 16.82 23.8 16.82 24.84C16.82 26.56 16 27.94 14.36 28.98C12.76 30.02 10.6 30.54 7.88 30.54C5.84 30.54 4.16 30.18 2.84 29.46C1.52 28.7 0.86 27.72 0.86 26.52C0.86 25.72 1.16 25.06 1.76 24.54C2.36 23.98 3.1 23.7 3.98 23.7C4.66 23.7 5.34 23.84 6.02 24.12C5.34 24.64 5 25.48 5 26.64C5 27.44 5.28 28.06 5.84 28.5C6.4 28.94 7.08 29.16 7.88 29.16C8.8 29.16 9.58 28.92 10.22 28.44C10.9 27.96 11.24 27.28 11.24 26.4C11.24 25.56 10.9 24.9 10.22 24.42C9.58 23.9 8.56 23.3 7.16 22.62C5.88 22.02 4.84 21.48 4.04 21C3.28 20.48 2.62 19.8 2.06 18.96C1.5 18.12 1.22 17.1 1.22 15.9C1.22 14.1 1.98 12.68 3.5 11.64C5.02 10.6 6.94 10.08 9.26 10.08C11.3 10.08 12.96 10.46 14.24 11.22C15.56 11.98 16.22 12.96 16.22 14.16C16.22 15.08 15.94 15.76 15.38 16.2C14.82 16.64 14.1 16.86 13.22 16.86C12.38 16.86 11.64 16.68 11 16.32C11.72 15.64 12.08 14.78 12.08 13.74C12.08 13.06 11.82 12.52 11.3 12.12C10.78 11.68 10.1 11.46 9.26 11.46C8.34 11.46 7.62 11.72 7.1 12.24C6.58 12.76 6.32 13.4 6.32 14.16ZM30.3289 28.62C31.6089 28.62 32.6089 27.8 33.3289 26.16C34.0889 24.48 34.4689 22.38 34.4689 19.86C34.4689 16.46 33.7489 13.78 32.3089 11.82L31.7689 11.16L32.2489 10.68L37.2889 10.08C37.4089 11.8 37.4689 13.18 37.4689 14.22C37.4689 19.34 36.6889 23.34 35.1289 26.22C33.5689 29.1 31.4689 30.54 28.8289 30.54C26.7489 30.54 25.1689 29.92 24.0889 28.68C23.0489 27.44 22.3089 25.4 21.8689 22.56L20.6089 13.92C20.5689 13.6 20.4889 13.38 20.3689 13.26C20.2489 13.14 20.0689 13.08 19.8289 13.08H18.2089L18.0289 12.42C18.8289 11.7 19.7889 11.14 20.9089 10.74C22.0289 10.3 23.1289 10.08 24.2089 10.08C24.8089 10.08 25.2289 10.26 25.4689 10.62C25.7489 10.98 25.9689 11.7 26.1289 12.78L27.6889 23.52C27.9689 25.48 28.2889 26.82 28.6489 27.54C29.0089 28.26 29.5689 28.62 30.3289 28.62ZM48.2244 26.58C48.2244 27.78 48.6044 28.38 49.3644 28.38C50.1244 28.38 50.8644 28.08 51.5844 27.48L52.0644 28.08C50.5844 29.72 48.8444 30.54 46.8444 30.54C45.4044 30.54 44.3644 30.18 43.7244 29.46C43.0844 28.7 42.7644 27.48 42.7644 25.8V13.92C42.7644 13.36 42.5044 13.08 41.9844 13.08H40.1244L39.9444 12.42C40.7444 11.74 41.7444 11.18 42.9444 10.74C44.1444 10.3 45.3444 10.08 46.5444 10.08C47.0244 10.08 47.4244 10.2 47.7444 10.44C48.0644 10.68 48.2244 11 48.2244 11.4V26.58ZM42.1644 4.32C42.1644 3.6 42.5644 2.8 43.3644 1.92C44.1644 1.04 44.9044 0.599999 45.5844 0.599999C46.3044 0.599999 47.0644 1.04 47.8644 1.92C48.7044 2.8 49.1244 3.6 49.1244 4.32C49.1244 5.08 48.7044 5.9 47.8644 6.78C47.0644 7.62 46.3044 8.04 45.5844 8.04C44.9044 8.04 44.1644 7.62 43.3644 6.78C42.5644 5.9 42.1644 5.08 42.1644 4.32ZM59.4392 30.54C57.7992 30.54 56.6192 30.18 55.8992 29.46C55.1792 28.7 54.8192 27.48 54.8192 25.8V13.08H51.8192C51.8192 12.4 51.8592 11.96 51.9392 11.76C52.0192 11.56 52.2592 11.4 52.6592 11.28C53.9792 10.92 55.0192 10.36 55.7792 9.6C56.5392 8.84 57.1592 7.74 57.6392 6.3C57.7592 5.86 57.9592 5.6 58.2392 5.52C58.5192 5.4 59.1992 5.34 60.2792 5.34V10.74H65.1992C65.1992 11.26 65.1192 11.74 64.9592 12.18C64.7992 12.58 64.5792 12.88 64.2992 13.08H60.2792V26.58C60.2792 27.78 60.7792 28.38 61.7792 28.38C62.2192 28.38 62.6992 28.24 63.2192 27.96C63.7792 27.68 64.2792 27.3 64.7192 26.82L65.1992 27.42C63.4792 29.5 61.5592 30.54 59.4392 30.54ZM73.3175 16.74C72.4775 17.22 71.4775 17.46 70.3175 17.46C69.4775 17.46 68.8175 17.22 68.3375 16.74C67.8575 16.22 67.6175 15.5 67.6175 14.58C67.6175 13.22 68.2775 12.14 69.5975 11.34C70.9575 10.5 72.7175 10.08 74.8775 10.08C77.4375 10.08 79.4375 10.64 80.8775 11.76C82.3575 12.88 83.0975 14.4 83.0975 16.32V26.7C83.0975 27.82 83.4975 28.38 84.2975 28.38C85.0575 28.38 85.7975 28.08 86.5175 27.48L86.9975 28.08C85.5175 29.72 83.7575 30.54 81.7175 30.54C80.5175 30.54 79.5975 30.24 78.9575 29.64C78.3575 29.04 77.9975 28.1 77.8775 26.82H77.6375C76.9975 27.98 76.1375 28.9 75.0575 29.58C74.0175 30.22 72.8175 30.54 71.4575 30.54C69.9375 30.54 68.7175 30.08 67.7975 29.16C66.8775 28.2 66.4175 26.96 66.4175 25.44C66.4175 23.72 67.2375 22.36 68.8775 21.36C70.5175 20.36 72.7375 19.86 75.5375 19.86C76.0575 19.86 76.7975 19.9 77.7575 19.98V16.98C77.7575 15.02 77.5175 13.62 77.0375 12.78C76.5575 11.9 75.7775 11.46 74.6975 11.46C73.9375 11.46 73.3375 11.7 72.8975 12.18C72.4575 12.66 72.2375 13.28 72.2375 14.04C72.2375 15.24 72.5975 16.14 73.3175 16.74ZM74.2175 27.54C76.5775 27.54 77.7575 25.4 77.7575 21.12C75.7575 21.12 74.2575 21.46 73.2575 22.14C72.2575 22.78 71.7575 23.7 71.7575 24.9C71.7575 25.7 71.9775 26.34 72.4175 26.82C72.8575 27.3 73.4575 27.54 74.2175 27.54ZM108.612 26.58C108.612 27.78 108.992 28.38 109.752 28.38C110.512 28.38 111.252 28.08 111.972 27.48L112.452 28.08C110.972 29.72 109.232 30.54 107.232 30.54C105.792 30.54 104.752 30.18 104.112 29.46C103.512 28.7 103.212 27.48 103.212 25.8V16.62C103.212 14.3 102.472 13.14 100.992 13.14C99.5516 13.14 98.3716 14.12 97.4516 16.08C96.5716 18.04 96.1316 20.6 96.1316 23.76C96.1316 24.96 96.2316 25.94 96.4316 26.7C96.6316 27.42 96.9516 28.12 97.3916 28.8L97.8716 29.4L97.3916 30H88.6916L88.3316 28.98L89.1716 28.8C89.8116 28.64 90.2316 28.4 90.4316 28.08C90.6316 27.72 90.7316 27.04 90.7316 26.04V14.34C90.7316 13.58 90.4716 13.2 89.9516 13.2H88.0316L87.8516 12.54C88.6516 11.86 89.6516 11.3 90.8516 10.86C92.0516 10.42 93.2516 10.2 94.4516 10.2C94.9716 10.2 95.3716 10.32 95.6516 10.56C95.9716 10.8 96.1316 11.12 96.1316 11.52V16.68C96.6916 14.8 97.6916 13.24 99.1316 12C100.572 10.72 102.092 10.08 103.692 10.08C105.412 10.08 106.652 10.64 107.412 11.76C108.212 12.88 108.612 14.66 108.612 17.1V26.58ZM113.616 20.34C113.616 17.18 114.516 14.68 116.316 12.84C118.156 11 120.636 10.08 123.756 10.08C126.876 10.08 129.356 11.02 131.196 12.9C133.036 14.74 133.956 17.22 133.956 20.34C133.956 23.46 133.036 25.94 131.196 27.78C129.356 29.62 126.876 30.54 123.756 30.54C120.636 30.54 118.156 29.62 116.316 27.78C114.516 25.94 113.616 23.46 113.616 20.34ZM127.896 20.46C127.896 17.78 127.516 15.6 126.756 13.92C125.996 12.2 125.036 11.34 123.876 11.34C122.596 11.34 121.556 12.18 120.756 13.86C119.956 15.5 119.556 17.66 119.556 20.34C119.556 23.06 119.916 25.22 120.636 26.82C121.396 28.42 122.396 29.22 123.636 29.22C124.876 29.22 125.896 28.42 126.696 26.82C127.496 25.18 127.896 23.06 127.896 20.46ZM158.422 28.2C157.022 29.76 155.282 30.54 153.202 30.54C151.922 30.54 150.902 30.26 150.142 29.7C149.422 29.14 148.862 28.2 148.462 26.88L146.602 21.6C146.362 20.92 146.042 20.4 145.642 20.04C145.282 19.68 144.782 19.42 144.142 19.26V23.76C144.142 25 144.222 25.98 144.382 26.7C144.582 27.42 144.902 28.12 145.342 28.8L145.822 29.4L145.342 30H136.642L136.282 28.98L137.122 28.8C137.762 28.64 138.182 28.4 138.382 28.08C138.582 27.72 138.682 27.04 138.682 26.04V4.38C138.682 3.82 138.422 3.54 137.902 3.54H136.042L135.802 2.94C136.562 2.22 137.542 1.66 138.742 1.26C139.982 0.819999 141.202 0.599999 142.402 0.599999C142.922 0.599999 143.342 0.719999 143.662 0.959998C143.982 1.16 144.142 1.46 144.142 1.86V18.12L147.742 15.48C148.582 14.88 149.162 14.4 149.482 14.04C149.802 13.68 149.962 13.3 149.962 12.9C149.962 12.34 149.722 11.86 149.242 11.46L148.762 11.1L149.242 10.5H156.502L156.862 11.52C155.862 11.76 154.742 12.32 153.502 13.2L146.422 18.36C148.182 18.56 149.542 18.98 150.502 19.62C151.462 20.26 152.162 21.18 152.602 22.38L154.282 27.18C154.562 28.06 155.122 28.5 155.962 28.5C156.562 28.5 157.222 28.2 157.942 27.6L158.422 28.2Z" fill="#1A103A"/>
</svg>
